<svg xmlns="http://www.w3.org/2000/svg" xmlns:xlink="http://www.w3.org/1999/xlink" width="300" zoomAndPan="magnify" viewBox="0 0 224.87999 74.999997" height="100" preserveAspectRatio="xMidYMid meet" version="1.2"><defs><clipPath id="cb7f15d49a"><path d="M 0 0.0195312 L 224.761719 0.0195312 L 224.761719 74.980469 L 0 74.980469 Z M 0 0.0195312 "/></clipPath><clipPath id="be3c1ed390"><path d="M 12 32.195312 L 14 32.195312 L 14 34.246094 L 12 34.246094 Z M 12 32.195312 "/></clipPath><clipPath id="1a351651b5"><path d="M 13.480469 32.316406 C 13.476562 32.316406 13.476562 32.316406 13.472656 32.3125 C 13.460938 32.308594 13.445312 32.300781 13.429688 32.292969 C 13.410156 32.285156 13.402344 32.28125 13.386719 32.273438 C 13.382812 32.273438 13.375 32.269531 13.371094 32.265625 C 13.34375 32.253906 13.320312 32.25 13.296875 32.238281 C 13.292969 32.238281 13.285156 32.238281 13.28125 32.234375 C 13.226562 32.21875 13.164062 32.207031 13.105469 32.199219 C 13.074219 32.195312 13.042969 32.195312 13.007812 32.195312 C 12.484375 32.195312 12.046875 32.636719 12.046875 33.171875 C 12.046875 33.25 12.058594 33.324219 12.074219 33.394531 C 12.175781 33.828125 12.5625 34.152344 13.011719 34.152344 C 13.382812 34.152344 13.703125 33.945312 13.871094 33.640625 C 13.949219 33.5 13.992188 33.34375 13.992188 33.171875 C 13.992188 32.808594 13.785156 32.484375 13.484375 32.316406 "/></clipPath><clipPath id="e82ff3623f"><path d="M 15.550781 32.195312 L 17.597656 32.195312 L 17.597656 34.246094 L 15.550781 34.246094 Z M 15.550781 32.195312 "/></clipPath><clipPath id="e0332e86ec"><path d="M 16.597656 32.195312 C 16.566406 32.195312 16.535156 32.195312 16.503906 32.203125 L 16.5 32.203125 C 16.484375 32.203125 16.472656 32.207031 16.457031 32.210938 C 15.984375 32.28125 15.621094 32.6875 15.621094 33.175781 C 15.621094 33.71875 16.058594 34.15625 16.597656 34.15625 C 16.777344 34.15625 16.949219 34.105469 17.09375 34.015625 C 17.160156 33.972656 17.222656 33.925781 17.273438 33.871094 C 17.449219 33.695312 17.558594 33.445312 17.558594 33.175781 C 17.558594 32.636719 17.121094 32.199219 16.597656 32.199219 "/></clipPath><clipPath id="5d1ffabcf1"><path d="M 19.046875 32.195312 L 21.09375 32.195312 L 21.09375 34.246094 L 19.046875 34.246094 Z M 19.046875 32.195312 "/></clipPath><clipPath id="31589607da"><path d="M 20.097656 32.195312 C 20.070312 32.195312 20.046875 32.195312 20.019531 32.199219 C 20.011719 32.199219 20.003906 32.199219 20 32.203125 C 19.992188 32.207031 19.988281 32.203125 19.980469 32.203125 C 19.59375 32.25 19.277344 32.519531 19.160156 32.886719 C 19.132812 32.976562 19.117188 33.074219 19.117188 33.175781 C 19.117188 33.71875 19.554688 34.15625 20.09375 34.15625 C 20.148438 34.15625 20.191406 34.152344 20.242188 34.144531 C 20.632812 34.085938 20.949219 33.792969 21.042969 33.414062 C 21.066406 33.339844 21.074219 33.257812 21.074219 33.175781 C 21.074219 32.636719 20.636719 32.199219 20.09375 32.199219 "/></clipPath><clipPath id="c30957ade1"><path d="M 1.6875 23.757812 L 34.714844 23.757812 L 34.714844 51.242188 L 1.6875 51.242188 Z M 1.6875 23.757812 "/></clipPath><clipPath id="15aa64a91e"><path d="M 26.628906 45.800781 C 31.441406 43.71875 34.703125 39.945312 34.703125 35.636719 C 34.699219 29.109375 27.28125 23.796875 18.214844 23.796875 C 9.148438 23.796875 1.730469 29.109375 1.726562 35.636719 C 1.730469 42.144531 9.148438 47.457031 18.214844 47.457031 C 18.464844 47.457031 18.734375 47.457031 19.003906 47.441406 C 19.429688 47.445312 19.441406 47.441406 19.644531 47.824219 C 19.835938 48.207031 20.066406 48.6875 20.183594 48.9375 C 20.523438 49.609375 21.214844 51.191406 23.578125 51.207031 C 25.347656 51.171875 27.078125 51.1875 28.847656 51.171875 C 29.09375 51.171875 29.21875 51.035156 29.21875 50.894531 C 29.21875 50.828125 29.191406 50.765625 29.140625 50.722656 C 28.585938 50.296875 28.070312 49.820312 27.785156 49.234375 C 27.4375 48.519531 26.902344 47.386719 26.476562 46.503906 C 26.386719 46.34375 26.34375 46.21875 26.34375 46.121094 C 26.34375 45.980469 26.433594 45.890625 26.628906 45.808594 M 24.8125 42.578125 C 24.8125 42.574219 24.808594 42.574219 24.808594 42.574219 C 24.785156 42.550781 24.765625 42.519531 24.742188 42.488281 C 24.703125 42.421875 24.671875 42.351562 24.644531 42.308594 C 23.570312 40.007812 22.417969 37.734375 21.378906 35.429688 C 21.34375 35.339844 21.328125 35.269531 21.242188 35.242188 C 21.214844 35.234375 21.175781 35.234375 21.128906 35.234375 L 20.574219 35.234375 L 20.597656 35.269531 L 20.601562 35.285156 C 20.660156 35.402344 20.71875 35.523438 20.78125 35.644531 C 20.855469 35.804688 20.933594 35.957031 21.007812 36.109375 C 21.09375 36.300781 21.148438 36.484375 21.179688 36.648438 C 21.195312 36.753906 21.207031 36.847656 21.207031 36.9375 C 21.207031 37.335938 21.042969 37.625 20.789062 37.765625 C 20.664062 37.835938 20.519531 37.875 20.359375 37.878906 C 20.273438 37.878906 20.183594 37.863281 20.082031 37.839844 C 19.726562 37.75 19.324219 37.492188 18.941406 37.023438 C 18.730469 36.777344 18.617188 36.605469 18.425781 36.316406 C 18.3125 36.128906 18.199219 35.929688 18.082031 35.730469 C 18.023438 35.625 17.964844 35.519531 17.90625 35.417969 C 17.851562 35.300781 17.789062 35.21875 17.625 35.222656 L 17.097656 35.222656 L 17.121094 35.277344 C 17.164062 35.363281 17.203125 35.449219 17.25 35.539062 C 17.332031 35.710938 17.417969 35.882812 17.507812 36.046875 C 17.695312 36.457031 17.777344 36.792969 17.777344 37.070312 C 17.773438 37.707031 17.355469 37.996094 16.828125 37.996094 C 16.402344 37.996094 15.910156 37.800781 15.53125 37.429688 C 15.398438 37.304688 15.285156 37.15625 15.1875 36.988281 C 15.132812 36.898438 15.078125 36.804688 15.027344 36.710938 C 14.894531 36.484375 14.761719 36.257812 14.632812 36.03125 C 14.515625 35.824219 14.398438 35.621094 14.285156 35.417969 C 14.183594 35.226562 14.039062 35.21875 13.890625 35.203125 C 13.785156 35.203125 13.671875 35.21875 13.558594 35.21875 L 13.496094 35.21875 L 13.519531 35.261719 L 13.523438 35.273438 C 14.699219 37.671875 15.890625 40.097656 17.078125 42.523438 C 17.367188 43.113281 17.65625 43.703125 17.941406 44.289062 L 17.945312 44.289062 C 18.003906 44.40625 18.03125 44.5 18.03125 44.5625 C 18.027344 44.597656 18.019531 44.621094 18.011719 44.640625 C 17.984375 44.6875 17.921875 44.710938 17.800781 44.714844 C 17.785156 44.714844 17.765625 44.710938 17.75 44.710938 C 16.539062 44.691406 15.378906 44.511719 14.292969 44.191406 C 10.015625 42.949219 6.96875 39.550781 6.972656 35.597656 C 6.980469 30.570312 11.925781 26.449219 18.042969 26.449219 C 24.136719 26.449219 29.101562 30.570312 29.113281 35.597656 C 29.113281 36.441406 28.980469 37.253906 28.734375 38.019531 C 28.152344 39.820312 26.914062 41.378906 25.167969 42.5625 C 25.085938 42.632812 25.019531 42.65625 24.96875 42.65625 C 24.917969 42.65625 24.863281 42.625 24.816406 42.582031 C 24.816406 42.582031 24.816406 42.578125 24.816406 42.578125 "/></clipPath><clipPath id="dedb7b5db4"><path d="M 30.042969 49.308594 L 30.988281 49.308594 L 30.988281 49.558594 L 30.042969 49.558594 Z M 30.382812 49.558594 L 30.644531 49.558594 L 30.644531 51.132812 L 30.382812 51.132812 Z M 30.382812 49.558594 "/></clipPath><clipPath id="e9686bc3db"><path d="M 31.097656 49.3125 L 33.027344 49.3125 L 33.027344 51.242188 L 31.097656 51.242188 Z M 31.097656 49.3125 "/></clipPath><clipPath id="eaeae1e1c8"><path d="M 32.609375 49.3125 L 32.082031 50.726562 L 31.554688 49.3125 L 31.164062 49.3125 L 31.164062 51.136719 L 31.417969 51.136719 L 31.402344 49.554688 L 31.992188 51.136719 L 32.175781 51.136719 L 32.769531 49.554688 L 32.753906 51.136719 L 33.003906 51.136719 L 33.003906 49.3125 L 32.609375 49.3125 "/></clipPath><clipPath id="3a25e8662d"><path d="M 43.113281 25.875 L 59.902344 25.875 L 59.902344 44.722656 L 43.113281 44.722656 Z M 43.113281 25.875 "/></clipPath><clipPath id="0efe940387"><path d="M 51.921875 44.707031 C 47.988281 44.707031 43.191406 44.535156 43.191406 38.558594 L 43.191406 38.15625 L 50.6875 38.15625 L 50.6875 40.859375 L 52.09375 40.859375 L 52.09375 38.277344 C 50.859375 37.839844 49.425781 37.441406 47.988281 36.953125 C 45.691406 36.152344 43.507812 35.117188 43.421875 31.929688 C 43.332031 27.675781 46.378906 25.953125 51.433594 25.953125 C 58.011719 25.953125 59.503906 28.453125 59.503906 31.410156 L 59.503906 32.097656 L 52.09375 32.097656 L 52.09375 29.859375 L 50.6875 29.859375 L 50.6875 32.097656 C 51.632812 32.386719 53.011719 32.789062 54.5625 33.25 C 57.207031 33.992188 59.878906 35.113281 59.878906 38.5625 C 59.878906 43.246094 56.457031 44.710938 51.917969 44.710938 "/></clipPath><clipPath id="278c3fe63a"><path d="M 61.035156 30.199219 L 76.484375 30.199219 L 76.484375 48.945312 L 61.035156 48.945312 Z M 61.035156 30.199219 "/></clipPath><clipPath id="1f192212d4"><path d="M 75.726562 42.351562 C 74.949219 43.730469 73.625 44.59375 71.703125 44.59375 C 69.863281 44.59375 68.660156 43.988281 67.96875 43.070312 L 67.96875 48.867188 L 61.105469 48.867188 L 61.105469 30.550781 L 67.910156 30.550781 L 67.910156 31.984375 C 68.457031 31.09375 69.660156 30.261719 71.789062 30.289062 C 73.140625 30.289062 74.117188 30.695312 74.894531 31.441406 C 76.152344 32.644531 76.441406 34.367188 76.441406 37.296875 C 76.441406 39.390625 76.382812 41.140625 75.726562 42.347656 M 67.96875 40.371094 L 69.433594 40.371094 L 69.433594 34.367188 L 67.96875 34.367188 Z M 67.96875 40.371094 "/></clipPath><clipPath id="ff95895b7b"><path d="M 77.410156 30.097656 L 93.066406 30.097656 L 93.066406 44.722656 L 77.410156 44.722656 Z M 77.410156 30.097656 "/></clipPath><clipPath id="88b5f6f406"><path d="M 90.25 43.675781 C 88.554688 44.535156 86.65625 44.621094 85.195312 44.621094 C 78.960938 44.621094 77.5 41.75 77.5 37.382812 C 77.5 32.503906 79.59375 30.117188 85.453125 30.117188 C 88.960938 30.117188 91.054688 31.003906 92.203125 32.84375 C 92.660156 33.617188 93.0625 34.652344 93.0625 37.097656 L 93.0625 38.101562 L 84.5625 38.101562 L 84.5625 41.289062 L 86.027344 41.289062 L 86.027344 39.507812 L 93.0625 39.507812 C 93.0625 41.230469 91.859375 42.871094 90.25 43.675781 M 84.5625 35.71875 L 86.027344 35.71875 L 86.027344 33.132812 L 84.5625 33.132812 Z M 84.5625 35.71875 "/></clipPath><clipPath id="0577c290cf"><path d="M 94.097656 30.097656 L 109.753906 30.097656 L 109.753906 44.722656 L 94.097656 44.722656 Z M 94.097656 30.097656 "/></clipPath><clipPath id="b3e18fc87f"><path d="M 106.871094 43.675781 C 105.175781 44.535156 103.28125 44.621094 101.816406 44.621094 C 95.582031 44.621094 94.117188 41.75 94.117188 37.382812 C 94.117188 32.503906 96.214844 30.117188 102.074219 30.117188 C 105.578125 30.117188 107.675781 31.003906 108.820312 32.84375 C 109.28125 33.617188 109.683594 34.652344 109.683594 37.097656 L 109.683594 38.101562 L 101.183594 38.101562 L 101.183594 41.289062 L 102.644531 41.289062 L 102.644531 39.507812 L 109.683594 39.507812 C 109.683594 41.230469 108.480469 42.871094 106.867188 43.675781 M 101.183594 35.71875 L 102.644531 35.71875 L 102.644531 33.132812 L 101.183594 33.132812 Z M 101.183594 35.71875 "/></clipPath><clipPath id="f5a15af61e"><path d="M 110.679688 26.390625 L 126 26.390625 L 126 44.515625 L 110.679688 44.515625 Z M 110.679688 26.390625 "/></clipPath><clipPath id="d9f57efe5a"><path d="M 119.09375 44.1875 L 119.09375 42.898438 C 118.316406 43.761719 117.113281 44.472656 115.332031 44.472656 C 114.210938 44.472656 113.207031 44.273438 112.257812 43.355469 C 110.96875 42.121094 110.765625 39.882812 110.734375 37.667969 C 110.703125 35.058594 110.9375 33.277344 111.652344 32.15625 C 112.515625 30.804688 113.753906 30.257812 115.414062 30.257812 C 117.136719 30.257812 118.285156 30.777344 119.089844 31.636719 L 119.089844 26.46875 L 125.984375 26.46875 L 125.984375 44.1875 Z M 117.660156 40.253906 L 119.09375 40.253906 L 119.09375 34.339844 L 117.660156 34.339844 Z M 117.660156 40.253906 "/></clipPath><clipPath id="34336c2342"><path d="M 135.78125 25.847656 L 153.238281 25.847656 L 153.238281 44.78125 L 135.78125 44.78125 Z M 135.78125 25.847656 "/></clipPath><clipPath id="b4eb9c38b8"><path d="M 143.839844 44.703125 C 140.855469 44.703125 139.042969 43.988281 137.75 42.808594 C 136.089844 41.289062 135.855469 38.730469 135.855469 35.3125 C 135.855469 28.050781 137.605469 25.925781 144.101562 25.925781 C 150.589844 25.925781 152.34375 28.050781 152.34375 35.3125 C 152.34375 37.121094 152.230469 39.566406 151.652344 40.941406 L 153.234375 40.941406 L 153.234375 44.703125 Z M 143.378906 40.945312 L 144.789062 40.945312 L 144.789062 30.003906 L 143.378906 30.003906 Z M 143.378906 40.945312 "/></clipPath><clipPath id="3a663f6f20"><path d="M 153.933594 30.539062 L 169.304688 30.539062 L 169.304688 44.519531 L 153.933594 44.519531 Z M 153.933594 30.539062 "/></clipPath><clipPath id="be813532a1"><path d="M 162.324219 44.1875 L 162.324219 42.839844 C 161.320312 43.84375 160.027344 44.535156 158.246094 44.476562 C 156.582031 44.449219 155.261719 43.613281 154.628906 42.492188 C 154.28125 41.890625 153.9375 40.941406 153.9375 39.222656 L 153.9375 30.546875 L 160.890625 30.546875 L 160.890625 40.3125 L 162.324219 40.3125 L 162.324219 30.546875 L 169.21875 30.546875 L 169.21875 44.1875 L 162.324219 44.1875 "/></clipPath><clipPath id="f80a4cc2a5"><path d="M 170.261719 30.105469 L 185.980469 30.105469 L 185.980469 44.695312 L 170.261719 44.695312 Z M 170.261719 30.105469 "/></clipPath><clipPath id="941641a097"><path d="M 183.074219 43.671875 C 181.378906 44.535156 179.484375 44.621094 178.023438 44.621094 C 171.792969 44.621094 170.328125 41.75 170.328125 37.382812 C 170.328125 32.5 172.421875 30.117188 178.28125 30.117188 C 181.78125 30.117188 183.882812 31.003906 185.027344 32.84375 C 185.488281 33.617188 185.894531 34.652344 185.894531 37.09375 L 185.894531 38.097656 L 177.386719 38.097656 L 177.386719 41.289062 L 178.851562 41.289062 L 178.851562 39.507812 L 185.886719 39.507812 C 185.886719 41.230469 184.683594 42.867188 183.070312 43.671875 M 177.386719 35.71875 L 178.855469 35.71875 L 178.855469 33.132812 L 177.386719 33.132812 Z M 177.386719 35.71875 "/></clipPath><clipPath id="0ddfb9880a"><path d="M 186.933594 30.105469 L 202.566406 30.105469 L 202.566406 44.695312 L 186.933594 44.695312 Z M 186.933594 30.105469 "/></clipPath><clipPath id="688a12f72c"><path d="M 199.695312 43.671875 C 198 44.535156 196.101562 44.621094 194.640625 44.621094 C 188.410156 44.621094 186.941406 41.75 186.941406 37.382812 C 186.941406 32.5 189.039062 30.117188 194.898438 30.117188 C 198.402344 30.117188 200.5 31.003906 201.648438 32.84375 C 202.105469 33.617188 202.511719 34.652344 202.511719 37.09375 L 202.511719 38.097656 L 194.007812 38.097656 L 194.007812 41.289062 L 195.46875 41.289062 L 195.46875 39.507812 L 202.507812 39.507812 C 202.507812 41.230469 201.304688 42.867188 199.695312 43.671875 M 194.007812 35.71875 L 195.46875 35.71875 L 195.46875 33.132812 L 194.007812 33.132812 Z M 194.007812 35.71875 "/></clipPath><clipPath id="1fe0c122d6"><path d="M 203.609375 30.105469 L 218.980469 30.105469 L 218.980469 44.261719 L 203.609375 44.261719 Z M 203.609375 30.105469 "/></clipPath><clipPath id="071c884af9"><path d="M 211.945312 44.1875 L 211.945312 34.367188 L 210.484375 34.367188 L 210.484375 44.1875 L 203.617188 44.1875 L 203.617188 30.546875 L 210.28125 30.546875 L 210.28125 31.867188 C 210.832031 31.09375 212.175781 30.117188 214.390625 30.117188 C 217.289062 30.089844 218.898438 31.980469 218.898438 34.773438 L 218.898438 44.1875 L 211.945312 44.1875 "/></clipPath><clipPath id="66696ad69f"><path d="M 220.109375 41.222656 L 223.238281 41.222656 L 223.238281 44.261719 L 220.109375 44.261719 Z M 220.109375 41.222656 "/></clipPath><clipPath id="1de7d249cf"><path d="M 220.136719 42.710938 C 220.136719 41.855469 220.828125 41.222656 221.652344 41.222656 C 222.460938 41.222656 223.15625 41.855469 223.15625 42.710938 C 223.15625 43.574219 222.460938 44.203125 221.652344 44.203125 C 220.828125 44.203125 220.136719 43.574219 220.136719 42.710938 M 221.652344 43.957031 C 222.324219 43.957031 222.855469 43.429688 222.855469 42.710938 C 222.855469 42.003906 222.320312 41.472656 221.652344 41.472656 C 220.96875 41.472656 220.4375 42.003906 220.4375 42.710938 C 220.4375 43.425781 220.96875 43.957031 221.652344 43.957031 M 221.332031 43.574219 L 221.074219 43.574219 L 221.074219 41.855469 L 221.730469 41.855469 C 222.136719 41.855469 222.335938 42.003906 222.335938 42.339844 C 222.335938 42.648438 222.144531 42.78125 221.890625 42.8125 L 222.378906 43.570312 L 222.089844 43.570312 L 221.636719 42.824219 L 221.335938 42.824219 L 221.335938 43.570312 Z M 221.644531 42.605469 C 221.863281 42.605469 222.0625 42.589844 222.0625 42.324219 C 222.0625 42.113281 221.867188 42.070312 221.683594 42.070312 L 221.328125 42.070312 L 221.328125 42.605469 L 221.640625 42.605469 "/></clipPath></defs><g id="ca8f6499d2"><g clip-rule="nonzero" clip-path="url(#cb7f15d49a)"><path style=" stroke:none;fill-rule:nonzero;fill:#ffffff;fill-opacity:1;" d="M 0 0.0195312 L 224.878906 0.0195312 L 224.878906 74.980469 L 0 74.980469 Z M 0 0.0195312 "/></g><g clip-rule="nonzero" clip-path="url(#be3c1ed390)"><g clip-rule="nonzero" clip-path="url(#1a351651b5)"><path style=" stroke:none;fill-rule:nonzero;fill:#f04923;fill-opacity:1;" d="M 0 22.070312 L 36.402344 22.070312 L 36.402344 52.929688 L 0 52.929688 Z M 0 22.070312 "/></g></g><g clip-rule="nonzero" clip-path="url(#e82ff3623f)"><g clip-rule="nonzero" clip-path="url(#e0332e86ec)"><path style=" stroke:none;fill-rule:nonzero;fill:#f04923;fill-opacity:1;" d="M 0 22.070312 L 36.402344 22.070312 L 36.402344 52.929688 L 0 52.929688 Z M 0 22.070312 "/></g></g><g clip-rule="nonzero" clip-path="url(#5d1ffabcf1)"><g clip-rule="nonzero" clip-path="url(#31589607da)"><path style=" stroke:none;fill-rule:nonzero;fill:#f04923;fill-opacity:1;" d="M 0 22.070312 L 36.402344 22.070312 L 36.402344 52.929688 L 0 52.929688 Z M 0 22.070312 "/></g></g><g clip-rule="nonzero" clip-path="url(#c30957ade1)"><g clip-rule="nonzero" clip-path="url(#15aa64a91e)"><path style=" stroke:none;fill-rule:nonzero;fill:#f04923;fill-opacity:1;" d="M 0 22.070312 L 36.402344 22.070312 L 36.402344 52.929688 L 0 52.929688 Z M 0 22.070312 "/></g></g><g clip-rule="nonzero" clip-path="url(#dedb7b5db4)"><path style=" stroke:none;fill-rule:nonzero;fill:#f04923;fill-opacity:1;" d="M 0 22.070312 L 36.402344 22.070312 L 36.402344 52.929688 L 0 52.929688 Z M 0 22.070312 "/></g><g clip-rule="nonzero" clip-path="url(#e9686bc3db)"><g clip-rule="nonzero" clip-path="url(#eaeae1e1c8)"><path style=" stroke:none;fill-rule:nonzero;fill:#f04923;fill-opacity:1;" d="M 0 22.070312 L 36.402344 22.070312 L 36.402344 52.929688 L 0 52.929688 Z M 0 22.070312 "/></g></g><g clip-rule="nonzero" clip-path="url(#3a25e8662d)"><g clip-rule="nonzero" clip-path="url(#0efe940387)"><path style=" stroke:none;fill-rule:nonzero;fill:#f04923;fill-opacity:1;" d="M 41.464844 24.226562 L 127.675781 24.226562 L 127.675781 50.59375 L 41.464844 50.59375 Z M 41.464844 24.226562 "/></g></g><g clip-rule="nonzero" clip-path="url(#278c3fe63a)"><g clip-rule="nonzero" clip-path="url(#1f192212d4)"><path style=" stroke:none;fill-rule:nonzero;fill:#f04923;fill-opacity:1;" d="M 41.464844 24.226562 L 127.675781 24.226562 L 127.675781 50.59375 L 41.464844 50.59375 Z M 41.464844 24.226562 "/></g></g><g clip-rule="nonzero" clip-path="url(#ff95895b7b)"><g clip-rule="nonzero" clip-path="url(#88b5f6f406)"><path style=" stroke:none;fill-rule:nonzero;fill:#f04923;fill-opacity:1;" d="M 41.464844 24.226562 L 127.675781 24.226562 L 127.675781 50.59375 L 41.464844 50.59375 Z M 41.464844 24.226562 "/></g></g><g clip-rule="nonzero" clip-path="url(#0577c290cf)"><g clip-rule="nonzero" clip-path="url(#b3e18fc87f)"><path style=" stroke:none;fill-rule:nonzero;fill:#f04923;fill-opacity:1;" d="M 41.464844 24.226562 L 127.675781 24.226562 L 127.675781 50.59375 L 41.464844 50.59375 Z M 41.464844 24.226562 "/></g></g><g clip-rule="nonzero" clip-path="url(#f5a15af61e)"><g clip-rule="nonzero" clip-path="url(#d9f57efe5a)"><path style=" stroke:none;fill-rule:nonzero;fill:#f04923;fill-opacity:1;" d="M 41.464844 24.226562 L 127.675781 24.226562 L 127.675781 50.59375 L 41.464844 50.59375 Z M 41.464844 24.226562 "/></g></g><g clip-rule="nonzero" clip-path="url(#34336c2342)"><g clip-rule="nonzero" clip-path="url(#b4eb9c38b8)"><path style=" stroke:none;fill-rule:nonzero;fill:#f04923;fill-opacity:1;" d="M 134.132812 24.199219 L 224.886719 24.199219 L 224.886719 46.429688 L 134.132812 46.429688 Z M 134.132812 24.199219 "/></g></g><g clip-rule="nonzero" clip-path="url(#3a663f6f20)"><g clip-rule="nonzero" clip-path="url(#be813532a1)"><path style=" stroke:none;fill-rule:nonzero;fill:#f04923;fill-opacity:1;" d="M 134.132812 24.199219 L 224.886719 24.199219 L 224.886719 46.429688 L 134.132812 46.429688 Z M 134.132812 24.199219 "/></g></g><g clip-rule="nonzero" clip-path="url(#f80a4cc2a5)"><g clip-rule="nonzero" clip-path="url(#941641a097)"><path style=" stroke:none;fill-rule:nonzero;fill:#f04923;fill-opacity:1;" d="M 134.132812 24.199219 L 224.886719 24.199219 L 224.886719 46.429688 L 134.132812 46.429688 Z M 134.132812 24.199219 "/></g></g><g clip-rule="nonzero" clip-path="url(#0ddfb9880a)"><g clip-rule="nonzero" clip-path="url(#688a12f72c)"><path style=" stroke:none;fill-rule:nonzero;fill:#f04923;fill-opacity:1;" d="M 134.132812 24.199219 L 224.886719 24.199219 L 224.886719 46.429688 L 134.132812 46.429688 Z M 134.132812 24.199219 "/></g></g><g clip-rule="nonzero" clip-path="url(#1fe0c122d6)"><g clip-rule="nonzero" clip-path="url(#071c884af9)"><path style=" stroke:none;fill-rule:nonzero;fill:#f04923;fill-opacity:1;" d="M 134.132812 24.199219 L 224.886719 24.199219 L 224.886719 46.429688 L 134.132812 46.429688 Z M 134.132812 24.199219 "/></g></g><g clip-rule="nonzero" clip-path="url(#66696ad69f)"><g clip-rule="nonzero" clip-path="url(#1de7d249cf)"><path style=" stroke:none;fill-rule:nonzero;fill:#f04923;fill-opacity:1;" d="M 134.132812 24.199219 L 224.886719 24.199219 L 224.886719 46.429688 L 134.132812 46.429688 Z M 134.132812 24.199219 "/></g></g></g></svg>